<svg id="Layer_1" data-name="Layer 1" xmlns="http://www.w3.org/2000/svg" viewBox="0 0 512 512"><g id="Black_PNG" data-name="Black PNG"><polygon points="56 429.06 96.85 429.26 177.59 288.82 157.2 253.55 56 429.06"/><polygon points="105.22 429.26 258.78 429.26 238.13 393.55 177.59 288.82 157.17 324.37 197.13 393.55 125.86 393.55 105.22 429.26"/><polygon points="287.24 393.55 181.92 211.43 161.48 246.94 266.71 429.26 406.88 429.26 385.95 393.55 287.24 393.55"/><polygon points="255.74 82.74 186.09 203.46 291.58 386.6 332.85 386.6 226.96 203.93 231.15 196.41 340.45 386.6 381.72 386.6 251.62 161.25 255.64 153.94 414.58 429.26 456 429.26 255.74 82.74"/></g></svg>